<mxfile host="app.diagrams.net" modified="2022-07-06T17:36:01.115Z" agent="5.0 (Windows NT 10.0; Win64; x64) AppleWebKit/537.36 (KHTML, like Gecko) Chrome/103.0.0.0 Safari/537.36" etag="tRByA7wx6_-ELT4CgN0H" version="20.0.1" type="github">
  <diagram id="rOWbTCWuSsgele2I9vaN" name="Page-1">
    <mxGraphModel dx="1303" dy="792" grid="1" gridSize="10" guides="1" tooltips="1" connect="1" arrows="1" fold="1" page="1" pageScale="1" pageWidth="850" pageHeight="1100" math="0" shadow="0">
      <root>
        <mxCell id="0" />
        <mxCell id="1" parent="0" />
        <mxCell id="zCOI9aebqrcHYzFAyHjg-30" value="" style="group" vertex="1" connectable="0" parent="1">
          <mxGeometry x="80" y="120" width="690" height="520" as="geometry" />
        </mxCell>
        <mxCell id="zCOI9aebqrcHYzFAyHjg-20" value="Issue Tree for Identfying Top-Performing Students" style="swimlane;fillColor=default;" vertex="1" parent="zCOI9aebqrcHYzFAyHjg-30">
          <mxGeometry width="690" height="520" as="geometry" />
        </mxCell>
        <mxCell id="zCOI9aebqrcHYzFAyHjg-31" value="" style="rounded=0;whiteSpace=wrap;html=1;fontSize=23;fontColor=#000000;fillColor=default;" vertex="1" parent="zCOI9aebqrcHYzFAyHjg-20">
          <mxGeometry y="20" width="690" height="500" as="geometry" />
        </mxCell>
        <mxCell id="zCOI9aebqrcHYzFAyHjg-23" value="&lt;font style=&quot;font-size: 23px;&quot;&gt;Study level&lt;/font&gt;" style="rounded=1;whiteSpace=wrap;html=1;fillColor=#bac8d3;strokeColor=#23445d;" vertex="1" parent="zCOI9aebqrcHYzFAyHjg-20">
          <mxGeometry x="40" y="130" width="100" height="110" as="geometry" />
        </mxCell>
        <mxCell id="zCOI9aebqrcHYzFAyHjg-28" style="edgeStyle=orthogonalEdgeStyle;rounded=0;orthogonalLoop=1;jettySize=auto;html=1;exitX=0.5;exitY=1;exitDx=0;exitDy=0;entryX=0.5;entryY=0;entryDx=0;entryDy=0;" edge="1" parent="zCOI9aebqrcHYzFAyHjg-20" source="zCOI9aebqrcHYzFAyHjg-6" target="zCOI9aebqrcHYzFAyHjg-15">
          <mxGeometry relative="1" as="geometry" />
        </mxCell>
        <mxCell id="zCOI9aebqrcHYzFAyHjg-6" value="Senior&lt;br&gt;secondary" style="shape=process;whiteSpace=wrap;html=1;backgroundOutline=1;fillColor=#ffe6cc;strokeColor=#d79b00;" vertex="1" parent="zCOI9aebqrcHYzFAyHjg-20">
          <mxGeometry x="450" y="210" width="120" height="60" as="geometry" />
        </mxCell>
        <mxCell id="zCOI9aebqrcHYzFAyHjg-4" value="Junior&lt;br&gt;secondary" style="shape=process;whiteSpace=wrap;html=1;backgroundOutline=1;fillColor=#ffe6cc;strokeColor=#d79b00;" vertex="1" parent="zCOI9aebqrcHYzFAyHjg-20">
          <mxGeometry x="180" y="210" width="120" height="60" as="geometry" />
        </mxCell>
        <mxCell id="zCOI9aebqrcHYzFAyHjg-11" value="JSCE" style="shape=process;whiteSpace=wrap;html=1;backgroundOutline=1;fillColor=#e1d5e7;strokeColor=#9673a6;" vertex="1" parent="zCOI9aebqrcHYzFAyHjg-20">
          <mxGeometry x="180" y="320" width="120" height="60" as="geometry" />
        </mxCell>
        <mxCell id="zCOI9aebqrcHYzFAyHjg-12" value="" style="edgeStyle=orthogonalEdgeStyle;rounded=0;orthogonalLoop=1;jettySize=auto;html=1;" edge="1" parent="zCOI9aebqrcHYzFAyHjg-20" source="zCOI9aebqrcHYzFAyHjg-4" target="zCOI9aebqrcHYzFAyHjg-11">
          <mxGeometry relative="1" as="geometry" />
        </mxCell>
        <mxCell id="zCOI9aebqrcHYzFAyHjg-1" value="Top-performing&lt;br&gt;students" style="shape=process;whiteSpace=wrap;html=1;backgroundOutline=1;fillColor=#dae8fc;strokeColor=#6c8ebf;" vertex="1" parent="zCOI9aebqrcHYzFAyHjg-20">
          <mxGeometry x="305" y="50" width="120" height="60" as="geometry" />
        </mxCell>
        <mxCell id="zCOI9aebqrcHYzFAyHjg-24" style="edgeStyle=orthogonalEdgeStyle;rounded=0;orthogonalLoop=1;jettySize=auto;html=1;exitX=0.5;exitY=1;exitDx=0;exitDy=0;entryX=0.5;entryY=0;entryDx=0;entryDy=0;" edge="1" parent="zCOI9aebqrcHYzFAyHjg-20" source="zCOI9aebqrcHYzFAyHjg-1" target="zCOI9aebqrcHYzFAyHjg-6">
          <mxGeometry relative="1" as="geometry" />
        </mxCell>
        <mxCell id="zCOI9aebqrcHYzFAyHjg-26" style="edgeStyle=orthogonalEdgeStyle;rounded=0;orthogonalLoop=1;jettySize=auto;html=1;exitX=0.5;exitY=1;exitDx=0;exitDy=0;entryX=0.5;entryY=0;entryDx=0;entryDy=0;" edge="1" parent="zCOI9aebqrcHYzFAyHjg-20" source="zCOI9aebqrcHYzFAyHjg-1" target="zCOI9aebqrcHYzFAyHjg-4">
          <mxGeometry relative="1" as="geometry" />
        </mxCell>
        <mxCell id="zCOI9aebqrcHYzFAyHjg-14" value="NECO" style="shape=process;whiteSpace=wrap;html=1;backgroundOutline=1;fillColor=#e1d5e7;strokeColor=#9673a6;" vertex="1" parent="zCOI9aebqrcHYzFAyHjg-20">
          <mxGeometry x="530" y="320" width="120" height="60" as="geometry" />
        </mxCell>
        <mxCell id="zCOI9aebqrcHYzFAyHjg-18" style="edgeStyle=orthogonalEdgeStyle;rounded=0;orthogonalLoop=1;jettySize=auto;html=1;exitX=0.5;exitY=1;exitDx=0;exitDy=0;" edge="1" parent="zCOI9aebqrcHYzFAyHjg-20" source="zCOI9aebqrcHYzFAyHjg-6" target="zCOI9aebqrcHYzFAyHjg-14">
          <mxGeometry relative="1" as="geometry" />
        </mxCell>
        <mxCell id="zCOI9aebqrcHYzFAyHjg-15" value="GCE" style="shape=process;whiteSpace=wrap;html=1;backgroundOutline=1;fillColor=#e1d5e7;strokeColor=#9673a6;" vertex="1" parent="zCOI9aebqrcHYzFAyHjg-20">
          <mxGeometry x="450" y="420" width="120" height="60" as="geometry" />
        </mxCell>
        <mxCell id="zCOI9aebqrcHYzFAyHjg-29" value="&lt;font style=&quot;font-size: 23px;&quot;&gt;Exam&lt;/font&gt;" style="rounded=1;whiteSpace=wrap;html=1;fillColor=#bac8d3;strokeColor=#23445d;" vertex="1" parent="zCOI9aebqrcHYzFAyHjg-20">
          <mxGeometry x="40" y="340" width="100" height="110" as="geometry" />
        </mxCell>
        <mxCell id="zCOI9aebqrcHYzFAyHjg-17" style="edgeStyle=orthogonalEdgeStyle;rounded=0;orthogonalLoop=1;jettySize=auto;html=1;exitX=0.5;exitY=1;exitDx=0;exitDy=0;" edge="1" parent="zCOI9aebqrcHYzFAyHjg-30" source="zCOI9aebqrcHYzFAyHjg-6" target="zCOI9aebqrcHYzFAyHjg-13">
          <mxGeometry relative="1" as="geometry" />
        </mxCell>
        <mxCell id="zCOI9aebqrcHYzFAyHjg-13" value="WAEC" style="shape=process;whiteSpace=wrap;html=1;backgroundOutline=1;fillColor=#e1d5e7;strokeColor=#9673a6;" vertex="1" parent="zCOI9aebqrcHYzFAyHjg-30">
          <mxGeometry x="365" y="320" width="120" height="60" as="geometry" />
        </mxCell>
        <mxCell id="zCOI9aebqrcHYzFAyHjg-27" value="" style="edgeStyle=orthogonalEdgeStyle;rounded=0;orthogonalLoop=1;jettySize=auto;html=1;exitX=0.5;exitY=1;exitDx=0;exitDy=0;entryX=0.5;entryY=0;entryDx=0;entryDy=0;endArrow=none;" edge="1" parent="zCOI9aebqrcHYzFAyHjg-30" source="zCOI9aebqrcHYzFAyHjg-6" target="zCOI9aebqrcHYzFAyHjg-13">
          <mxGeometry relative="1" as="geometry">
            <mxPoint x="520" y="270" as="sourcePoint" />
            <mxPoint x="480" y="420" as="targetPoint" />
          </mxGeometry>
        </mxCell>
      </root>
    </mxGraphModel>
  </diagram>
</mxfile>
